<?xml version="1.0" encoding="UTF-8"?>
<svg width="59px" height="35px" viewBox="0 0 59 35" version="1.1" xmlns="http://www.w3.org/2000/svg" xmlns:xlink="http://www.w3.org/1999/xlink">
    <!-- Generator: Sketch 53.2 (72643) - https://sketchapp.com -->
    <title>bike</title>
    <desc>Created with Sketch.</desc>
    <g id="Material-UI-Design-DESKTOP" stroke="none" stroke-width="1" fill="none" fill-rule="evenodd">
        <g id="Kabelset" transform="translate(-637.000000, -772.000000)" fill="#000000" fill-rule="nonzero">
            <g id="bike" transform="translate(637.000000, 772.000000)">
                <path d="M46.847132,11.5700949 C45.1746295,11.5700949 43.5618591,11.9172046 42.0685533,12.4957207 L40.0376573,8.67751398 L40.0376573,2.60309412 C40.0376573,2.25598442 39.7987283,1.90887471 39.4403349,1.79317148 L34.6617561,0.0576229471 C34.1838983,-0.115931906 33.7060404,0.115474565 33.5268437,0.578287506 C33.347647,1.04110045 33.5865759,1.50391339 34.0644338,1.67746824 L38.3054225,3.1816103 L38.3054225,8.0989978 L20.8038777,8.0989978 L20.8038777,6.42130089 L22.9542381,6.42130089 C23.432096,6.42130089 23.8502216,6.01633956 23.8502216,5.55352662 C23.8502216,5.09071368 23.432096,4.68575236 22.9542381,4.68575236 L17.3991403,4.68575236 C16.9212824,4.68575236 16.5031568,5.09071368 16.5031568,5.55352662 C16.5031568,6.01633956 16.9212824,6.42130089 17.3991403,6.42130089 L19.0119106,6.42130089 L19.0119106,8.79321721 L17.2796758,12.4378691 C15.9655667,11.9172046 14.4722608,11.6279465 12.9789549,11.6279465 C6.34867685,11.6279465 0.913043478,16.8345921 0.913043478,23.3139732 C0.913043478,29.7933544 6.28894461,35 12.9789549,35 C19.3105718,35 24.5072762,30.1983157 24.9851341,24.1817475 L28.8677294,24.1817475 C29.1663905,24.1817475 29.4053195,24.0660443 29.5845162,23.8346378 L38.9624771,10.7023206 L40.4557829,13.4213466 C37.0510455,15.3883016 34.7812206,19.0908051 34.7812206,23.2561216 C34.7812206,29.6776512 40.1571217,34.9421484 46.847132,34.9421484 C53.5371423,34.9421484 58.9130435,29.7355028 58.9130435,23.2561216 C58.9130435,16.7767404 53.5371423,11.5700949 46.847132,11.5700949 Z M12.9789549,33.2065999 C7.3043926,33.2065999 2.70501052,28.7520253 2.70501052,23.2561216 C2.70501052,17.7602179 7.3043926,13.3056434 12.9789549,13.3056434 C14.2333318,13.3056434 15.4279765,13.5370499 16.5031568,13.9420112 L12.1427036,22.9090119 C12.1427036,22.9090119 12.1427036,22.9090119 12.1427036,22.9668635 C12.0829714,23.0825668 12.0829714,23.1404184 12.0829714,23.2561216 C12.0829714,23.2561216 12.0829714,23.2561216 12.0829714,23.3139732 C12.0829714,23.4296765 12.0829714,23.4875281 12.1427036,23.6032313 L12.1427036,23.6610829 C12.1427036,23.7189346 12.1427036,23.7189346 12.2024359,23.7767862 C12.2024359,23.8346378 12.2621681,23.8346378 12.3219003,23.8924894 C12.3219003,23.8924894 12.3219003,23.8924894 12.3219003,23.950341 C12.3816326,24.0081926 12.501097,24.0660443 12.5608293,24.1238959 L12.6205615,24.1238959 C12.740026,24.1817475 12.7997582,24.1817475 12.9192227,24.1817475 L23.1334348,24.1817475 C22.7153092,29.2148382 18.354856,33.2065999 12.9789549,33.2065999 Z M14.3527963,22.3883474 L18.1159271,14.6940822 C20.9233421,16.2560759 22.8945059,19.0908051 23.1931671,22.3883474 L14.3527963,22.3883474 L14.3527963,22.3883474 Z M28.3898715,22.3883474 L24.9254019,22.3883474 C24.6267407,18.3965857 22.2374513,14.9833403 18.8327139,13.0742369 L20.4454843,9.77669471 L37.3497067,9.77669471 L28.3898715,22.3883474 Z M46.7873998,33.2065999 C41.1128375,33.2065999 36.5134554,28.7520253 36.5134554,23.2561216 C36.5134554,19.7271729 38.4248869,16.6610372 41.2920342,14.8676371 L46.0108808,23.6610829 C46.1900775,23.950341 46.4887386,24.1238959 46.7873998,24.1238959 C46.9068643,24.1238959 47.086061,24.0660443 47.2055255,24.0081926 C47.6236511,23.7767862 47.8028478,23.2561216 47.5639189,22.8511603 L42.8450723,14.0577144 C44.0994492,13.5949015 45.4135584,13.3056434 46.7873998,13.3056434 C52.4619621,13.3056434 57.0613442,17.7602179 57.0613442,23.2561216 C57.0613442,28.7520253 52.4619621,33.2065999 46.7873998,33.2065999 Z" id="Shape"></path>
            </g>
        </g>
    </g>
</svg>