<?xml version="1.0" encoding="UTF-8"?>
<svg width="54px" height="40px" viewBox="0 0 54 40" version="1.1" xmlns="http://www.w3.org/2000/svg" xmlns:xlink="http://www.w3.org/1999/xlink">
    <!-- Generator: Sketch 53.2 (72643) - https://sketchapp.com -->
    <title>caravan-2</title>
    <desc>Created with Sketch.</desc>
    <g id="Material-UI-Design-DESKTOP" stroke="none" stroke-width="1" fill="none" fill-rule="evenodd">
        <g id="Kabelset" transform="translate(-736.000000, -773.000000)" fill="#000000" fill-rule="nonzero">
            <g id="caravan-2" transform="translate(736.000000, 773.000000)">
                <path d="M52.7308897,27.5980206 C52.2173941,27.5980206 51.8010652,28.0241245 51.8010652,28.5496764 L51.8010652,28.5822707 C51.8010652,29.0981871 51.3910125,29.5178673 50.8869314,29.5178673 L45.2922932,29.5178673 L45.2922932,11.4229635 C45.2922932,5.12431005 40.2855367,0 34.1313766,0 L4.38315069,0 C2.33056297,0 0.660714286,1.70905501 0.660714286,3.80983536 L0.660714286,32.3563 C0.660714286,32.8818519 1.07704323,33.3079558 1.59053885,33.3079558 L22.9973086,33.3079558 C22.984756,33.4702132 22.9765038,33.6335411 22.9765038,33.7990103 C22.9765038,37.2181909 25.694381,40 29.0352406,40 C32.3761003,40 35.0939774,37.2181909 35.0939774,33.7990103 C35.0939774,33.6335411 35.0857253,33.4702132 35.0731726,33.3079558 L44.3624687,33.3079558 C44.8759643,33.3079558 45.2922932,32.8818519 45.2922932,32.3563 L45.2922932,31.4212981 L50.8869314,31.4212981 C52.4163766,31.4212981 53.6607143,30.1477446 53.6607143,28.5823896 L53.6607143,28.5497954 C53.6607143,28.0241245 53.2443853,27.5980206 52.7308897,27.5980206 Z M2.52036341,26.6463647 L5.30983709,26.6463647 L5.30983709,31.4046441 L2.52036341,31.4046441 L2.52036341,26.6463647 Z M15.5379073,31.4046441 L7.16948622,31.4046441 L7.16948622,12.3715265 C7.16948622,11.8468072 7.58662876,11.4198706 8.09931078,11.4198706 L14.6080827,11.4198706 C15.1207647,11.4198706 15.5379073,11.8468072 15.5379073,12.3715265 L15.5379073,31.4046441 Z M29.0352406,38.0966882 C26.7198612,38.0966882 24.8361529,36.1687524 24.8361529,33.7990103 C24.8361529,31.4292682 26.7198612,29.5013323 29.0352406,29.5013323 C31.35062,29.5013323 33.2343283,31.4292682 33.2343283,33.7990103 C33.2343283,36.1687524 31.35062,38.0966882 29.0352406,38.0966882 Z M43.4326441,31.4046441 L34.6236024,31.4046441 C33.706563,29.1708698 31.5471617,27.5980206 29.0351244,27.5980206 C26.5230871,27.5980206 24.363802,29.1708698 23.4466463,31.4046441 L17.3975564,31.4046441 L17.3975564,26.6463647 L40.6431704,26.6463647 C41.156666,26.6463647 41.572995,26.2202608 41.572995,25.6947088 C41.572995,25.1691568 41.156666,24.7430529 40.6431704,24.7430529 L17.3975564,24.7430529 L17.3975564,12.3715265 C17.3975564,10.7973687 16.1461288,9.51655881 14.6080827,9.51655881 L8.09931078,9.51655881 C6.56126472,9.51655881 5.30983709,10.7973687 5.30983709,12.3715265 L5.30983709,24.7430529 L2.52036341,24.7430529 L2.52036341,6.66159117 L37.8536967,6.66159117 C38.3671924,6.66159117 38.7835213,6.23548725 38.7835213,5.70993529 C38.7835213,5.18438333 38.3671924,4.75827941 37.8536967,4.75827941 L2.52036341,4.75827941 L2.52036341,3.80983536 C2.52036341,2.75849353 3.35604323,1.90331176 4.38315069,1.90331176 L34.1312603,1.90331176 C39.2599402,1.90331176 43.4325279,6.17374857 43.4325279,11.4229635 L43.4326441,31.4046441 L43.4326441,31.4046441 Z" id="Shape"></path>
                <path d="M38.7607143,9 L22.5607143,9 C22.0636893,9 21.6607143,9.44775 21.6607143,10 L21.6607143,18 C21.6607143,18.55225 22.0636893,19 22.5607143,19 L38.7607143,19 C39.2577393,19 39.6607143,18.55225 39.6607143,18 L39.6607143,10 C39.6607143,9.44775 39.2577393,9 38.7607143,9 Z M23.4607143,11 L29.7607143,11 L29.7607143,17 L23.4607143,17 L23.4607143,11 Z M37.8607143,17 L31.5607143,17 L31.5607143,11 L37.8607143,11 L37.8607143,17 Z" id="Shape"></path>
                <path d="M30.5230579,34 C30.5230579,34.4755404 30.1362547,34.8623436 29.6607143,34.8623436 C29.1851739,34.8623436 28.7983707,34.4755404 28.7983707,34 C28.7983707,33.5244596 29.1851739,33.1376564 29.6607143,33.1376564 C29.9748497,33.1376564 30.2295425,32.8829636 30.2295425,32.5688282 C30.2295425,32.2546928 29.9748497,32 29.6607143,32 C28.5578986,32 27.6607143,32.8971843 27.6607143,34 C27.6607143,35.1028157 28.5578986,36 29.6607143,36 C30.76353,36 31.6607143,35.1028157 31.6607143,34 C31.6607143,33.6858646 31.4060215,33.4311718 31.0918861,33.4311718 C30.7777507,33.4311718 30.5230579,33.6858646 30.5230579,34 Z" id="Path"></path>
            </g>
        </g>
    </g>
</svg>