<?xml version="1.0" encoding="UTF-8"?>
<svg width="80px" height="75px" viewBox="0 0 80 75" version="1.1" xmlns="http://www.w3.org/2000/svg" xmlns:xlink="http://www.w3.org/1999/xlink">
    <!-- Generator: Sketch 57.1 (83088) - https://sketch.com -->
    <title>Dutch_license_plate</title>
    <desc>Created with Sketch.</desc>
    <g id="Page-1" stroke="none" stroke-width="1" fill="none" fill-rule="evenodd">
        <g id="Dutch_license_plate">
            <rect id="Rectangle" fill="#273473" x="0" y="0" width="80" height="75"></rect>
            <g id="Group" transform="translate(22.670817, 9.818878)" fill-rule="nonzero">
                <g id="g3313" transform="translate(0.000000, -0.000000)" fill="#FFCC00">
                    <g id="use3315" transform="translate(11.296911, 3.227689)">
                        <g id="s">
                            <g id="c" transform="translate(3.227689, 0.000000)">
                                <polygon id="t" transform="translate(1.748206, 2.505949) rotate(18.000001) translate(-1.748206, -2.505949) " points="1.34474493 1.69902715 1.34474493 3.31287153 2.15166712 3.31287153"></polygon>
                                <g id="use3302" transform="translate(1.613844, 2.420767) scale(-1, 1) translate(-1.613844, -2.420767) ">
                                    <polygon id="t" transform="translate(1.748206, 2.505949) rotate(18.000001) translate(-1.748206, -2.505949) " points="1.34474493 1.69902715 1.34474493 3.31287153 2.15166712 3.31287153"></polygon>
                                </g>
                            </g>
                            <g id="a" transform="translate(1.613844, 0.000000)">
                                <g id="use3305" transform="translate(3.995117, 2.978336) rotate(71.999999) translate(-3.995117, -2.978336) translate(2.381273, 0.557570)">
                                    <g id="c">
                                        <polygon id="t" transform="translate(1.748206, 2.505949) rotate(18.000001) translate(-1.748206, -2.505949) " points="1.34474491 1.69902713 1.34474491 3.31287149 2.15166709 3.31287149"></polygon>
                                        <g id="use3302" transform="translate(1.613844, 2.420767) scale(-1, 1) translate(-1.613844, -2.420767) ">
                                            <polygon id="t" transform="translate(1.748206, 2.505949) rotate(18.000001) translate(-1.748206, -2.505949) " points="1.34474491 1.69902713 1.34474491 3.31287149 2.15166709 3.31287149"></polygon>
                                        </g>
                                    </g>
                                </g>
                                <g id="use3307" transform="translate(3.701986, 3.880503) rotate(143.999998) translate(-3.701986, -3.880503) translate(2.088141, 1.459736)">
                                    <g id="c">
                                        <polygon id="t" transform="translate(1.748206, 2.505949) rotate(18.000001) translate(-1.748206, -2.505949) " points="1.34474497 1.69902721 1.34474497 3.31287164 2.15166719 3.31287164"></polygon>
                                        <g id="use3302" transform="translate(1.613844, 2.420767) scale(-1, 1) translate(-1.613844, -2.420767) ">
                                            <polygon id="t" transform="translate(1.748206, 2.505949) rotate(18.000001) translate(-1.748206, -2.505949) " points="1.34474497 1.69902721 1.34474497 3.31287164 2.15166719 3.31287164"></polygon>
                                        </g>
                                    </g>
                                </g>
                            </g>
                            <g id="use3309" transform="translate(4.034611, 4.034611) scale(-1, 1) translate(-4.034611, -4.034611) ">
                                <g id="a">
                                    <g id="use3305" transform="translate(3.995117, 2.978336) rotate(71.999999) translate(-3.995117, -2.978336) translate(2.381273, 0.557570)">
                                        <g id="c">
                                            <polygon id="t" transform="translate(1.748206, 2.505949) rotate(18.000001) translate(-1.748206, -2.505949) " points="1.34474491 1.69902713 1.34474491 3.31287149 2.15166709 3.31287149"></polygon>
                                            <g id="use3302" transform="translate(1.613844, 2.420767) scale(-1, 1) translate(-1.613844, -2.420767) ">
                                                <polygon id="t" transform="translate(1.748206, 2.505949) rotate(18.000001) translate(-1.748206, -2.505949) " points="1.34474491 1.69902713 1.34474491 3.31287149 2.15166709 3.31287149"></polygon>
                                            </g>
                                        </g>
                                    </g>
                                    <g id="use3307" transform="translate(3.701986, 3.880503) rotate(143.999998) translate(-3.701986, -3.880503) translate(2.088141, 1.459736)">
                                        <g id="c">
                                            <polygon id="t" transform="translate(1.748206, 2.505949) rotate(18.000001) translate(-1.748206, -2.505949) " points="1.34474497 1.69902721 1.34474497 3.31287164 2.15166719 3.31287164"></polygon>
                                            <g id="use3302" transform="translate(1.613844, 2.420767) scale(-1, 1) translate(-1.613844, -2.420767) ">
                                                <polygon id="t" transform="translate(1.748206, 2.505949) rotate(18.000001) translate(-1.748206, -2.505949) " points="1.34474497 1.69902721 1.34474497 3.31287164 2.15166719 3.31287164"></polygon>
                                            </g>
                                        </g>
                                    </g>
                                </g>
                            </g>
                        </g>
                    </g>
                    <g id="use3317" transform="translate(11.296911, 22.593822)">
                        <g id="s">
                            <g id="c" transform="translate(3.227689, 0.000000)">
                                <polygon id="t" transform="translate(1.748206, 2.505949) rotate(18.000001) translate(-1.748206, -2.505949) " points="1.34474493 1.69902715 1.34474493 3.31287153 2.15166712 3.31287153"></polygon>
                                <g id="use3302" transform="translate(1.613844, 2.420767) scale(-1, 1) translate(-1.613844, -2.420767) ">
                                    <polygon id="t" transform="translate(1.748206, 2.505949) rotate(18.000001) translate(-1.748206, -2.505949) " points="1.34474493 1.69902715 1.34474493 3.31287153 2.15166712 3.31287153"></polygon>
                                </g>
                            </g>
                            <g id="a" transform="translate(1.613844, 0.000000)">
                                <g id="use3305" transform="translate(3.995117, 2.978336) rotate(71.999999) translate(-3.995117, -2.978336) translate(2.381273, 0.557570)">
                                    <g id="c">
                                        <polygon id="t" transform="translate(1.748206, 2.505949) rotate(18.000001) translate(-1.748206, -2.505949) " points="1.34474491 1.69902713 1.34474491 3.31287149 2.15166709 3.31287149"></polygon>
                                        <g id="use3302" transform="translate(1.613844, 2.420767) scale(-1, 1) translate(-1.613844, -2.420767) ">
                                            <polygon id="t" transform="translate(1.748206, 2.505949) rotate(18.000001) translate(-1.748206, -2.505949) " points="1.34474491 1.69902713 1.34474491 3.31287149 2.15166709 3.31287149"></polygon>
                                        </g>
                                    </g>
                                </g>
                                <g id="use3307" transform="translate(3.701986, 3.880503) rotate(143.999998) translate(-3.701986, -3.880503) translate(2.088141, 1.459736)">
                                    <g id="c">
                                        <polygon id="t" transform="translate(1.748206, 2.505949) rotate(18.000001) translate(-1.748206, -2.505949) " points="1.34474497 1.69902721 1.34474497 3.31287164 2.15166719 3.31287164"></polygon>
                                        <g id="use3302" transform="translate(1.613844, 2.420767) scale(-1, 1) translate(-1.613844, -2.420767) ">
                                            <polygon id="t" transform="translate(1.748206, 2.505949) rotate(18.000001) translate(-1.748206, -2.505949) " points="1.34474497 1.69902721 1.34474497 3.31287164 2.15166719 3.31287164"></polygon>
                                        </g>
                                    </g>
                                </g>
                            </g>
                            <g id="use3309" transform="translate(4.034611, 4.034611) scale(-1, 1) translate(-4.034611, -4.034611) ">
                                <g id="a">
                                    <g id="use3305" transform="translate(3.995117, 2.978336) rotate(71.999999) translate(-3.995117, -2.978336) translate(2.381273, 0.557570)">
                                        <g id="c">
                                            <polygon id="t" transform="translate(1.748206, 2.505949) rotate(18.000001) translate(-1.748206, -2.505949) " points="1.34474491 1.69902713 1.34474491 3.31287149 2.15166709 3.31287149"></polygon>
                                            <g id="use3302" transform="translate(1.613844, 2.420767) scale(-1, 1) translate(-1.613844, -2.420767) ">
                                                <polygon id="t" transform="translate(1.748206, 2.505949) rotate(18.000001) translate(-1.748206, -2.505949) " points="1.34474491 1.69902713 1.34474491 3.31287149 2.15166709 3.31287149"></polygon>
                                            </g>
                                        </g>
                                    </g>
                                    <g id="use3307" transform="translate(3.701986, 3.880503) rotate(143.999998) translate(-3.701986, -3.880503) translate(2.088141, 1.459736)">
                                        <g id="c">
                                            <polygon id="t" transform="translate(1.748206, 2.505949) rotate(18.000001) translate(-1.748206, -2.505949) " points="1.34474497 1.69902721 1.34474497 3.31287164 2.15166719 3.31287164"></polygon>
                                            <g id="use3302" transform="translate(1.613844, 2.420767) scale(-1, 1) translate(-1.613844, -2.420767) ">
                                                <polygon id="t" transform="translate(1.748206, 2.505949) rotate(18.000001) translate(-1.748206, -2.505949) " points="1.34474497 1.69902721 1.34474497 3.31287164 2.15166719 3.31287164"></polygon>
                                            </g>
                                        </g>
                                    </g>
                                </g>
                            </g>
                        </g>
                    </g>
                    <g id="l">
                        <g id="use3320" transform="translate(1.613844, 12.910755)">
                            <g id="s">
                                <g id="c" transform="translate(3.227689, 0.000000)">
                                    <polygon id="t" transform="translate(1.748206, 2.505949) rotate(18.000001) translate(-1.748206, -2.505949) " points="1.34474493 1.69902715 1.34474493 3.31287153 2.15166712 3.31287153"></polygon>
                                    <g id="use3302" transform="translate(1.613844, 2.420767) scale(-1, 1) translate(-1.613844, -2.420767) ">
                                        <polygon id="t" transform="translate(1.748206, 2.505949) rotate(18.000001) translate(-1.748206, -2.505949) " points="1.34474493 1.69902715 1.34474493 3.31287153 2.15166712 3.31287153"></polygon>
                                    </g>
                                </g>
                                <g id="a" transform="translate(1.613844, 0.000000)">
                                    <g id="use3305" transform="translate(3.995117, 2.978336) rotate(71.999999) translate(-3.995117, -2.978336) translate(2.381273, 0.557570)">
                                        <g id="c">
                                            <polygon id="t" transform="translate(1.748206, 2.505949) rotate(18.000001) translate(-1.748206, -2.505949) " points="1.34474491 1.69902713 1.34474491 3.31287149 2.15166709 3.31287149"></polygon>
                                            <g id="use3302" transform="translate(1.613844, 2.420767) scale(-1, 1) translate(-1.613844, -2.420767) ">
                                                <polygon id="t" transform="translate(1.748206, 2.505949) rotate(18.000001) translate(-1.748206, -2.505949) " points="1.34474491 1.69902713 1.34474491 3.31287149 2.15166709 3.31287149"></polygon>
                                            </g>
                                        </g>
                                    </g>
                                    <g id="use3307" transform="translate(3.701986, 3.880503) rotate(143.999998) translate(-3.701986, -3.880503) translate(2.088141, 1.459736)">
                                        <g id="c">
                                            <polygon id="t" transform="translate(1.748206, 2.505949) rotate(18.000001) translate(-1.748206, -2.505949) " points="1.34474497 1.69902721 1.34474497 3.31287164 2.15166719 3.31287164"></polygon>
                                            <g id="use3302" transform="translate(1.613844, 2.420767) scale(-1, 1) translate(-1.613844, -2.420767) ">
                                                <polygon id="t" transform="translate(1.748206, 2.505949) rotate(18.000001) translate(-1.748206, -2.505949) " points="1.34474497 1.69902721 1.34474497 3.31287164 2.15166719 3.31287164"></polygon>
                                            </g>
                                        </g>
                                    </g>
                                </g>
                                <g id="use3309" transform="translate(4.034611, 4.034611) scale(-1, 1) translate(-4.034611, -4.034611) ">
                                    <g id="a">
                                        <g id="use3305" transform="translate(3.995117, 2.978336) rotate(71.999999) translate(-3.995117, -2.978336) translate(2.381273, 0.557570)">
                                            <g id="c">
                                                <polygon id="t" transform="translate(1.748206, 2.505949) rotate(18.000001) translate(-1.748206, -2.505949) " points="1.34474491 1.69902713 1.34474491 3.31287149 2.15166709 3.31287149"></polygon>
                                                <g id="use3302" transform="translate(1.613844, 2.420767) scale(-1, 1) translate(-1.613844, -2.420767) ">
                                                    <polygon id="t" transform="translate(1.748206, 2.505949) rotate(18.000001) translate(-1.748206, -2.505949) " points="1.34474491 1.69902713 1.34474491 3.31287149 2.15166709 3.31287149"></polygon>
                                                </g>
                                            </g>
                                        </g>
                                        <g id="use3307" transform="translate(3.701986, 3.880503) rotate(143.999998) translate(-3.701986, -3.880503) translate(2.088141, 1.459736)">
                                            <g id="c">
                                                <polygon id="t" transform="translate(1.748206, 2.505949) rotate(18.000001) translate(-1.748206, -2.505949) " points="1.34474497 1.69902721 1.34474497 3.31287164 2.15166719 3.31287164"></polygon>
                                                <g id="use3302" transform="translate(1.613844, 2.420767) scale(-1, 1) translate(-1.613844, -2.420767) ">
                                                    <polygon id="t" transform="translate(1.748206, 2.505949) rotate(18.000001) translate(-1.748206, -2.505949) " points="1.34474497 1.69902721 1.34474497 3.31287164 2.15166719 3.31287164"></polygon>
                                                </g>
                                            </g>
                                        </g>
                                    </g>
                                </g>
                            </g>
                        </g>
                        <g id="use3322" transform="translate(11.771208, 7.099849) rotate(-143.999998) translate(-11.771208, -7.099849) translate(6.929674, 3.065238)">
                            <g id="s">
                                <g id="c" transform="translate(3.227689, 0.000000)">
                                    <polygon id="t" transform="translate(1.748206, 2.505949) rotate(18.000001) translate(-1.748206, -2.505949) " points="1.34474497 1.69902721 1.34474497 3.31287164 2.15166719 3.31287164"></polygon>
                                    <g id="use3302" transform="translate(1.613844, 2.420767) scale(-1, 1) translate(-1.613844, -2.420767) ">
                                        <polygon id="t" transform="translate(1.748206, 2.505949) rotate(18.000001) translate(-1.748206, -2.505949) " points="1.34474497 1.69902721 1.34474497 3.31287164 2.15166719 3.31287164"></polygon>
                                    </g>
                                </g>
                                <g id="a" transform="translate(1.613844, 0.000000)">
                                    <g id="use3305" transform="translate(3.995118, 2.978336) rotate(71.999999) translate(-3.995118, -2.978336) translate(2.381273, 0.557570)">
                                        <g id="c">
                                            <polygon id="t" transform="translate(1.748206, 2.505949) rotate(18.000001) translate(-1.748206, -2.505949) " points="1.34474496 1.69902719 1.34474496 3.31287159 2.15166716 3.31287159"></polygon>
                                            <g id="use3302" transform="translate(1.613844, 2.420767) scale(-1, 1) translate(-1.613844, -2.420767) ">
                                                <polygon id="t" transform="translate(1.748206, 2.505949) rotate(18.000001) translate(-1.748206, -2.505949) " points="1.34474496 1.69902719 1.34474496 3.31287159 2.15166716 3.31287159"></polygon>
                                            </g>
                                        </g>
                                    </g>
                                    <g id="use3307" transform="translate(3.701986, 3.880503) rotate(143.999998) translate(-3.701986, -3.880503) translate(2.088141, 1.459736)">
                                        <g id="c">
                                            <polygon id="t" transform="translate(1.748206, 2.505950) rotate(18.000001) translate(-1.748206, -2.505950) " points="1.34474502 1.69902726 1.34474502 3.31287175 2.15166726 3.31287175"></polygon>
                                            <g id="use3302" transform="translate(1.613845, 2.420767) scale(-1, 1) translate(-1.613845, -2.420767) ">
                                                <polygon id="t" transform="translate(1.748206, 2.505950) rotate(18.000001) translate(-1.748206, -2.505950) " points="1.34474502 1.69902726 1.34474502 3.31287175 2.15166726 3.31287175"></polygon>
                                            </g>
                                        </g>
                                    </g>
                                </g>
                                <g id="use3309" transform="translate(4.034611, 4.034611) scale(-1, 1) translate(-4.034611, -4.034611) ">
                                    <g id="a">
                                        <g id="use3305" transform="translate(3.995118, 2.978336) rotate(71.999999) translate(-3.995118, -2.978336) translate(2.381273, 0.557570)">
                                            <g id="c">
                                                <polygon id="t" transform="translate(1.748206, 2.505949) rotate(18.000001) translate(-1.748206, -2.505949) " points="1.34474496 1.69902719 1.34474496 3.31287159 2.15166716 3.31287159"></polygon>
                                                <g id="use3302" transform="translate(1.613844, 2.420767) scale(-1, 1) translate(-1.613844, -2.420767) ">
                                                    <polygon id="t" transform="translate(1.748206, 2.505949) rotate(18.000001) translate(-1.748206, -2.505949) " points="1.34474496 1.69902719 1.34474496 3.31287159 2.15166716 3.31287159"></polygon>
                                                </g>
                                            </g>
                                        </g>
                                        <g id="use3307" transform="translate(3.701986, 3.880503) rotate(143.999998) translate(-3.701986, -3.880503) translate(2.088141, 1.459736)">
                                            <g id="c">
                                                <polygon id="t" transform="translate(1.748206, 2.505950) rotate(18.000001) translate(-1.748206, -2.505950) " points="1.34474502 1.69902726 1.34474502 3.31287175 2.15166726 3.31287175"></polygon>
                                                <g id="use3302" transform="translate(1.613845, 2.420767) scale(-1, 1) translate(-1.613845, -2.420767) ">
                                                    <polygon id="t" transform="translate(1.748206, 2.505950) rotate(18.000001) translate(-1.748206, -2.505950) " points="1.34474502 1.69902726 1.34474502 3.31287175 2.15166726 3.31287175"></polygon>
                                                </g>
                                            </g>
                                        </g>
                                    </g>
                                </g>
                            </g>
                        </g>
                        <g id="use3324" transform="translate(7.278366, 10.644097) rotate(143.999998) translate(-7.278366, -10.644097) translate(2.436832, 6.609486)">
                            <g id="s">
                                <g id="c" transform="translate(3.227689, 0.000000)">
                                    <polygon id="t" transform="translate(1.748206, 2.505949) rotate(18.000001) translate(-1.748206, -2.505949) " points="1.34474497 1.69902721 1.34474497 3.31287164 2.15166719 3.31287164"></polygon>
                                    <g id="use3302" transform="translate(1.613844, 2.420767) scale(-1, 1) translate(-1.613844, -2.420767) ">
                                        <polygon id="t" transform="translate(1.748206, 2.505949) rotate(18.000001) translate(-1.748206, -2.505949) " points="1.34474497 1.69902721 1.34474497 3.31287164 2.15166719 3.31287164"></polygon>
                                    </g>
                                </g>
                                <g id="a" transform="translate(1.613844, 0.000000)">
                                    <g id="use3305" transform="translate(3.995118, 2.978336) rotate(71.999999) translate(-3.995118, -2.978336) translate(2.381273, 0.557570)">
                                        <g id="c">
                                            <polygon id="t" transform="translate(1.748206, 2.505949) rotate(18.000001) translate(-1.748206, -2.505949) " points="1.34474496 1.69902719 1.34474496 3.31287159 2.15166716 3.31287159"></polygon>
                                            <g id="use3302" transform="translate(1.613844, 2.420767) scale(-1, 1) translate(-1.613844, -2.420767) ">
                                                <polygon id="t" transform="translate(1.748206, 2.505949) rotate(18.000001) translate(-1.748206, -2.505949) " points="1.34474496 1.69902719 1.34474496 3.31287159 2.15166716 3.31287159"></polygon>
                                            </g>
                                        </g>
                                    </g>
                                    <g id="use3307" transform="translate(3.701986, 3.880503) rotate(143.999998) translate(-3.701986, -3.880503) translate(2.088141, 1.459736)">
                                        <g id="c">
                                            <polygon id="t" transform="translate(1.748206, 2.505950) rotate(18.000001) translate(-1.748206, -2.505950) " points="1.34474502 1.69902726 1.34474502 3.31287175 2.15166726 3.31287175"></polygon>
                                            <g id="use3302" transform="translate(1.613845, 2.420767) scale(-1, 1) translate(-1.613845, -2.420767) ">
                                                <polygon id="t" transform="translate(1.748206, 2.505950) rotate(18.000001) translate(-1.748206, -2.505950) " points="1.34474502 1.69902726 1.34474502 3.31287175 2.15166726 3.31287175"></polygon>
                                            </g>
                                        </g>
                                    </g>
                                </g>
                                <g id="use3309" transform="translate(4.034611, 4.034611) scale(-1, 1) translate(-4.034611, -4.034611) ">
                                    <g id="a">
                                        <g id="use3305" transform="translate(3.995118, 2.978336) rotate(71.999999) translate(-3.995118, -2.978336) translate(2.381273, 0.557570)">
                                            <g id="c">
                                                <polygon id="t" transform="translate(1.748206, 2.505949) rotate(18.000001) translate(-1.748206, -2.505949) " points="1.34474496 1.69902719 1.34474496 3.31287159 2.15166716 3.31287159"></polygon>
                                                <g id="use3302" transform="translate(1.613844, 2.420767) scale(-1, 1) translate(-1.613844, -2.420767) ">
                                                    <polygon id="t" transform="translate(1.748206, 2.505949) rotate(18.000001) translate(-1.748206, -2.505949) " points="1.34474496 1.69902719 1.34474496 3.31287159 2.15166716 3.31287159"></polygon>
                                                </g>
                                            </g>
                                        </g>
                                        <g id="use3307" transform="translate(3.701986, 3.880503) rotate(143.999998) translate(-3.701986, -3.880503) translate(2.088141, 1.459736)">
                                            <g id="c">
                                                <polygon id="t" transform="translate(1.748206, 2.505950) rotate(18.000001) translate(-1.748206, -2.505950) " points="1.34474502 1.69902726 1.34474502 3.31287175 2.15166726 3.31287175"></polygon>
                                                <g id="use3302" transform="translate(1.613845, 2.420767) scale(-1, 1) translate(-1.613845, -2.420767) ">
                                                    <polygon id="t" transform="translate(1.748206, 2.505950) rotate(18.000001) translate(-1.748206, -2.505950) " points="1.34474502 1.69902726 1.34474502 3.31287175 2.15166726 3.31287175"></polygon>
                                                </g>
                                            </g>
                                        </g>
                                    </g>
                                </g>
                            </g>
                        </g>
                        <g id="use3326" transform="translate(6.985234, 21.229330) rotate(71.999999) translate(-6.985234, -21.229330) translate(2.143701, 17.194719)">
                            <g id="s">
                                <g id="c" transform="translate(3.227689, 0.000000)">
                                    <polygon id="t" transform="translate(1.748206, 2.505949) rotate(18.000001) translate(-1.748206, -2.505949) " points="1.34474491 1.69902713 1.34474491 3.31287149 2.15166709 3.31287149"></polygon>
                                    <g id="use3302" transform="translate(1.613844, 2.420767) scale(-1, 1) translate(-1.613844, -2.420767) ">
                                        <polygon id="t" transform="translate(1.748206, 2.505949) rotate(18.000001) translate(-1.748206, -2.505949) " points="1.34474491 1.69902713 1.34474491 3.31287149 2.15166709 3.31287149"></polygon>
                                    </g>
                                </g>
                                <g id="a" transform="translate(1.613844, 0.000000)">
                                    <g id="use3305" transform="translate(3.995117, 2.978336) rotate(71.999999) translate(-3.995117, -2.978336) translate(2.381273, 0.557570)">
                                        <g id="c">
                                            <polygon id="t" transform="translate(1.748206, 2.505949) rotate(18.000001) translate(-1.748206, -2.505949) " points="1.34474489 1.69902711 1.34474489 3.31287144 2.15166706 3.31287144"></polygon>
                                            <g id="use3302" transform="translate(1.613844, 2.420767) scale(-1, 1) translate(-1.613844, -2.420767) ">
                                                <polygon id="t" transform="translate(1.748206, 2.505949) rotate(18.000001) translate(-1.748206, -2.505949) " points="1.34474489 1.69902711 1.34474489 3.31287144 2.15166706 3.31287144"></polygon>
                                            </g>
                                        </g>
                                    </g>
                                    <g id="use3307" transform="translate(3.701986, 3.880503) rotate(143.999998) translate(-3.701986, -3.880503) translate(2.088141, 1.459736)">
                                        <g id="c">
                                            <polygon id="t" transform="translate(1.748206, 2.505949) rotate(18.000001) translate(-1.748206, -2.505949) " points="1.34474496 1.69902719 1.34474496 3.31287159 2.15166716 3.31287159"></polygon>
                                            <g id="use3302" transform="translate(1.613844, 2.420767) scale(-1, 1) translate(-1.613844, -2.420767) ">
                                                <polygon id="t" transform="translate(1.748206, 2.505949) rotate(18.000001) translate(-1.748206, -2.505949) " points="1.34474496 1.69902719 1.34474496 3.31287159 2.15166716 3.31287159"></polygon>
                                            </g>
                                        </g>
                                    </g>
                                </g>
                                <g id="use3309" transform="translate(4.034611, 4.034611) scale(-1, 1) translate(-4.034611, -4.034611) ">
                                    <g id="a">
                                        <g id="use3305" transform="translate(3.995117, 2.978336) rotate(71.999999) translate(-3.995117, -2.978336) translate(2.381273, 0.557570)">
                                            <g id="c">
                                                <polygon id="t" transform="translate(1.748206, 2.505949) rotate(18.000001) translate(-1.748206, -2.505949) " points="1.34474489 1.69902711 1.34474489 3.31287144 2.15166706 3.31287144"></polygon>
                                                <g id="use3302" transform="translate(1.613844, 2.420767) scale(-1, 1) translate(-1.613844, -2.420767) ">
                                                    <polygon id="t" transform="translate(1.748206, 2.505949) rotate(18.000001) translate(-1.748206, -2.505949) " points="1.34474489 1.69902711 1.34474489 3.31287144 2.15166706 3.31287144"></polygon>
                                                </g>
                                            </g>
                                        </g>
                                        <g id="use3307" transform="translate(3.701986, 3.880503) rotate(143.999998) translate(-3.701986, -3.880503) translate(2.088141, 1.459736)">
                                            <g id="c">
                                                <polygon id="t" transform="translate(1.748206, 2.505949) rotate(18.000001) translate(-1.748206, -2.505949) " points="1.34474496 1.69902719 1.34474496 3.31287159 2.15166716 3.31287159"></polygon>
                                                <g id="use3302" transform="translate(1.613844, 2.420767) scale(-1, 1) translate(-1.613844, -2.420767) ">
                                                    <polygon id="t" transform="translate(1.748206, 2.505949) rotate(18.000001) translate(-1.748206, -2.505949) " points="1.34474496 1.69902719 1.34474496 3.31287159 2.15166716 3.31287159"></polygon>
                                                </g>
                                            </g>
                                        </g>
                                    </g>
                                </g>
                            </g>
                        </g>
                        <g id="use3328" transform="translate(10.529482, 24.773578) rotate(71.999999) translate(-10.529482, -24.773578) translate(5.687949, 20.738967)">
                            <g id="s">
                                <g id="c" transform="translate(3.227689, 0.000000)">
                                    <polygon id="t" transform="translate(1.748206, 2.505949) rotate(18.000001) translate(-1.748206, -2.505949) " points="1.34474491 1.69902713 1.34474491 3.31287149 2.15166709 3.31287149"></polygon>
                                    <g id="use3302" transform="translate(1.613844, 2.420767) scale(-1, 1) translate(-1.613844, -2.420767) ">
                                        <polygon id="t" transform="translate(1.748206, 2.505949) rotate(18.000001) translate(-1.748206, -2.505949) " points="1.34474491 1.69902713 1.34474491 3.31287149 2.15166709 3.31287149"></polygon>
                                    </g>
                                </g>
                                <g id="a" transform="translate(1.613844, 0.000000)">
                                    <g id="use3305" transform="translate(3.995117, 2.978336) rotate(71.999999) translate(-3.995117, -2.978336) translate(2.381273, 0.557570)">
                                        <g id="c">
                                            <polygon id="t" transform="translate(1.748206, 2.505949) rotate(18.000001) translate(-1.748206, -2.505949) " points="1.34474489 1.69902711 1.34474489 3.31287144 2.15166706 3.31287144"></polygon>
                                            <g id="use3302" transform="translate(1.613844, 2.420767) scale(-1, 1) translate(-1.613844, -2.420767) ">
                                                <polygon id="t" transform="translate(1.748206, 2.505949) rotate(18.000001) translate(-1.748206, -2.505949) " points="1.34474489 1.69902711 1.34474489 3.31287144 2.15166706 3.31287144"></polygon>
                                            </g>
                                        </g>
                                    </g>
                                    <g id="use3307" transform="translate(3.701986, 3.880503) rotate(143.999998) translate(-3.701986, -3.880503) translate(2.088141, 1.459736)">
                                        <g id="c">
                                            <polygon id="t" transform="translate(1.748206, 2.505949) rotate(18.000001) translate(-1.748206, -2.505949) " points="1.34474496 1.69902719 1.34474496 3.31287159 2.15166716 3.31287159"></polygon>
                                            <g id="use3302" transform="translate(1.613844, 2.420767) scale(-1, 1) translate(-1.613844, -2.420767) ">
                                                <polygon id="t" transform="translate(1.748206, 2.505949) rotate(18.000001) translate(-1.748206, -2.505949) " points="1.34474496 1.69902719 1.34474496 3.31287159 2.15166716 3.31287159"></polygon>
                                            </g>
                                        </g>
                                    </g>
                                </g>
                                <g id="use3309" transform="translate(4.034611, 4.034611) scale(-1, 1) translate(-4.034611, -4.034611) ">
                                    <g id="a">
                                        <g id="use3305" transform="translate(3.995117, 2.978336) rotate(71.999999) translate(-3.995117, -2.978336) translate(2.381273, 0.557570)">
                                            <g id="c">
                                                <polygon id="t" transform="translate(1.748206, 2.505949) rotate(18.000001) translate(-1.748206, -2.505949) " points="1.34474489 1.69902711 1.34474489 3.31287144 2.15166706 3.31287144"></polygon>
                                                <g id="use3302" transform="translate(1.613844, 2.420767) scale(-1, 1) translate(-1.613844, -2.420767) ">
                                                    <polygon id="t" transform="translate(1.748206, 2.505949) rotate(18.000001) translate(-1.748206, -2.505949) " points="1.34474489 1.69902711 1.34474489 3.31287144 2.15166706 3.31287144"></polygon>
                                                </g>
                                            </g>
                                        </g>
                                        <g id="use3307" transform="translate(3.701986, 3.880503) rotate(143.999998) translate(-3.701986, -3.880503) translate(2.088141, 1.459736)">
                                            <g id="c">
                                                <polygon id="t" transform="translate(1.748206, 2.505949) rotate(18.000001) translate(-1.748206, -2.505949) " points="1.34474496 1.69902719 1.34474496 3.31287159 2.15166716 3.31287159"></polygon>
                                                <g id="use3302" transform="translate(1.613844, 2.420767) scale(-1, 1) translate(-1.613844, -2.420767) ">
                                                    <polygon id="t" transform="translate(1.748206, 2.505949) rotate(18.000001) translate(-1.748206, -2.505949) " points="1.34474496 1.69902719 1.34474496 3.31287159 2.15166716 3.31287159"></polygon>
                                                </g>
                                            </g>
                                        </g>
                                    </g>
                                </g>
                            </g>
                        </g>
                    </g>
                    <g id="use3330" transform="translate(22.593822, 15.331522) scale(-1, 1) translate(-22.593822, -15.331522) translate(12.910755, 0.000000)">
                        <g id="l">
                            <g id="use3320" transform="translate(1.613844, 12.910755)">
                                <g id="s">
                                    <g id="c" transform="translate(3.227689, 0.000000)">
                                        <polygon id="t" transform="translate(1.748206, 2.505949) rotate(18.000001) translate(-1.748206, -2.505949) " points="1.34474493 1.69902715 1.34474493 3.31287153 2.15166712 3.31287153"></polygon>
                                        <g id="use3302" transform="translate(1.613844, 2.420767) scale(-1, 1) translate(-1.613844, -2.420767) ">
                                            <polygon id="t" transform="translate(1.748206, 2.505949) rotate(18.000001) translate(-1.748206, -2.505949) " points="1.34474493 1.69902715 1.34474493 3.31287153 2.15166712 3.31287153"></polygon>
                                        </g>
                                    </g>
                                    <g id="a" transform="translate(1.613844, 0.000000)">
                                        <g id="use3305" transform="translate(3.995117, 2.978336) rotate(71.999999) translate(-3.995117, -2.978336) translate(2.381273, 0.557570)">
                                            <g id="c">
                                                <polygon id="t" transform="translate(1.748206, 2.505949) rotate(18.000001) translate(-1.748206, -2.505949) " points="1.34474491 1.69902713 1.34474491 3.31287149 2.15166709 3.31287149"></polygon>
                                                <g id="use3302" transform="translate(1.613844, 2.420767) scale(-1, 1) translate(-1.613844, -2.420767) ">
                                                    <polygon id="t" transform="translate(1.748206, 2.505949) rotate(18.000001) translate(-1.748206, -2.505949) " points="1.34474491 1.69902713 1.34474491 3.31287149 2.15166709 3.31287149"></polygon>
                                                </g>
                                            </g>
                                        </g>
                                        <g id="use3307" transform="translate(3.701986, 3.880503) rotate(143.999998) translate(-3.701986, -3.880503) translate(2.088141, 1.459736)">
                                            <g id="c">
                                                <polygon id="t" transform="translate(1.748206, 2.505949) rotate(18.000001) translate(-1.748206, -2.505949) " points="1.34474497 1.69902721 1.34474497 3.31287164 2.15166719 3.31287164"></polygon>
                                                <g id="use3302" transform="translate(1.613844, 2.420767) scale(-1, 1) translate(-1.613844, -2.420767) ">
                                                    <polygon id="t" transform="translate(1.748206, 2.505949) rotate(18.000001) translate(-1.748206, -2.505949) " points="1.34474497 1.69902721 1.34474497 3.31287164 2.15166719 3.31287164"></polygon>
                                                </g>
                                            </g>
                                        </g>
                                    </g>
                                    <g id="use3309" transform="translate(4.034611, 4.034611) scale(-1, 1) translate(-4.034611, -4.034611) ">
                                        <g id="a">
                                            <g id="use3305" transform="translate(3.995117, 2.978336) rotate(71.999999) translate(-3.995117, -2.978336) translate(2.381273, 0.557570)">
                                                <g id="c">
                                                    <polygon id="t" transform="translate(1.748206, 2.505949) rotate(18.000001) translate(-1.748206, -2.505949) " points="1.34474491 1.69902713 1.34474491 3.31287149 2.15166709 3.31287149"></polygon>
                                                    <g id="use3302" transform="translate(1.613844, 2.420767) scale(-1, 1) translate(-1.613844, -2.420767) ">
                                                        <polygon id="t" transform="translate(1.748206, 2.505949) rotate(18.000001) translate(-1.748206, -2.505949) " points="1.34474491 1.69902713 1.34474491 3.31287149 2.15166709 3.31287149"></polygon>
                                                    </g>
                                                </g>
                                            </g>
                                            <g id="use3307" transform="translate(3.701986, 3.880503) rotate(143.999998) translate(-3.701986, -3.880503) translate(2.088141, 1.459736)">
                                                <g id="c">
                                                    <polygon id="t" transform="translate(1.748206, 2.505949) rotate(18.000001) translate(-1.748206, -2.505949) " points="1.34474497 1.69902721 1.34474497 3.31287164 2.15166719 3.31287164"></polygon>
                                                    <g id="use3302" transform="translate(1.613844, 2.420767) scale(-1, 1) translate(-1.613844, -2.420767) ">
                                                        <polygon id="t" transform="translate(1.748206, 2.505949) rotate(18.000001) translate(-1.748206, -2.505949) " points="1.34474497 1.69902721 1.34474497 3.31287164 2.15166719 3.31287164"></polygon>
                                                    </g>
                                                </g>
                                            </g>
                                        </g>
                                    </g>
                                </g>
                            </g>
                            <g id="use3322" transform="translate(11.771208, 7.099849) rotate(-143.999998) translate(-11.771208, -7.099849) translate(6.929674, 3.065238)">
                                <g id="s">
                                    <g id="c" transform="translate(3.227689, 0.000000)">
                                        <polygon id="t" transform="translate(1.748206, 2.505949) rotate(18.000001) translate(-1.748206, -2.505949) " points="1.34474497 1.69902721 1.34474497 3.31287164 2.15166719 3.31287164"></polygon>
                                        <g id="use3302" transform="translate(1.613844, 2.420767) scale(-1, 1) translate(-1.613844, -2.420767) ">
                                            <polygon id="t" transform="translate(1.748206, 2.505949) rotate(18.000001) translate(-1.748206, -2.505949) " points="1.34474497 1.69902721 1.34474497 3.31287164 2.15166719 3.31287164"></polygon>
                                        </g>
                                    </g>
                                    <g id="a" transform="translate(1.613844, 0.000000)">
                                        <g id="use3305" transform="translate(3.995118, 2.978336) rotate(71.999999) translate(-3.995118, -2.978336) translate(2.381273, 0.557570)">
                                            <g id="c">
                                                <polygon id="t" transform="translate(1.748206, 2.505949) rotate(18.000001) translate(-1.748206, -2.505949) " points="1.34474496 1.69902719 1.34474496 3.31287159 2.15166716 3.31287159"></polygon>
                                                <g id="use3302" transform="translate(1.613844, 2.420767) scale(-1, 1) translate(-1.613844, -2.420767) ">
                                                    <polygon id="t" transform="translate(1.748206, 2.505949) rotate(18.000001) translate(-1.748206, -2.505949) " points="1.34474496 1.69902719 1.34474496 3.31287159 2.15166716 3.31287159"></polygon>
                                                </g>
                                            </g>
                                        </g>
                                        <g id="use3307" transform="translate(3.701986, 3.880503) rotate(143.999998) translate(-3.701986, -3.880503) translate(2.088141, 1.459736)">
                                            <g id="c">
                                                <polygon id="t" transform="translate(1.748206, 2.505950) rotate(18.000001) translate(-1.748206, -2.505950) " points="1.34474502 1.69902726 1.34474502 3.31287175 2.15166726 3.31287175"></polygon>
                                                <g id="use3302" transform="translate(1.613845, 2.420767) scale(-1, 1) translate(-1.613845, -2.420767) ">
                                                    <polygon id="t" transform="translate(1.748206, 2.505950) rotate(18.000001) translate(-1.748206, -2.505950) " points="1.34474502 1.69902726 1.34474502 3.31287175 2.15166726 3.31287175"></polygon>
                                                </g>
                                            </g>
                                        </g>
                                    </g>
                                    <g id="use3309" transform="translate(4.034611, 4.034611) scale(-1, 1) translate(-4.034611, -4.034611) ">
                                        <g id="a">
                                            <g id="use3305" transform="translate(3.995118, 2.978336) rotate(71.999999) translate(-3.995118, -2.978336) translate(2.381273, 0.557570)">
                                                <g id="c">
                                                    <polygon id="t" transform="translate(1.748206, 2.505949) rotate(18.000001) translate(-1.748206, -2.505949) " points="1.34474496 1.69902719 1.34474496 3.31287159 2.15166716 3.31287159"></polygon>
                                                    <g id="use3302" transform="translate(1.613844, 2.420767) scale(-1, 1) translate(-1.613844, -2.420767) ">
                                                        <polygon id="t" transform="translate(1.748206, 2.505949) rotate(18.000001) translate(-1.748206, -2.505949) " points="1.34474496 1.69902719 1.34474496 3.31287159 2.15166716 3.31287159"></polygon>
                                                    </g>
                                                </g>
                                            </g>
                                            <g id="use3307" transform="translate(3.701986, 3.880503) rotate(143.999998) translate(-3.701986, -3.880503) translate(2.088141, 1.459736)">
                                                <g id="c">
                                                    <polygon id="t" transform="translate(1.748206, 2.505950) rotate(18.000001) translate(-1.748206, -2.505950) " points="1.34474502 1.69902726 1.34474502 3.31287175 2.15166726 3.31287175"></polygon>
                                                    <g id="use3302" transform="translate(1.613845, 2.420767) scale(-1, 1) translate(-1.613845, -2.420767) ">
                                                        <polygon id="t" transform="translate(1.748206, 2.505950) rotate(18.000001) translate(-1.748206, -2.505950) " points="1.34474502 1.69902726 1.34474502 3.31287175 2.15166726 3.31287175"></polygon>
                                                    </g>
                                                </g>
                                            </g>
                                        </g>
                                    </g>
                                </g>
                            </g>
                            <g id="use3324" transform="translate(7.278366, 10.644097) rotate(143.999998) translate(-7.278366, -10.644097) translate(2.436832, 6.609486)">
                                <g id="s">
                                    <g id="c" transform="translate(3.227689, 0.000000)">
                                        <polygon id="t" transform="translate(1.748206, 2.505949) rotate(18.000001) translate(-1.748206, -2.505949) " points="1.34474497 1.69902721 1.34474497 3.31287164 2.15166719 3.31287164"></polygon>
                                        <g id="use3302" transform="translate(1.613844, 2.420767) scale(-1, 1) translate(-1.613844, -2.420767) ">
                                            <polygon id="t" transform="translate(1.748206, 2.505949) rotate(18.000001) translate(-1.748206, -2.505949) " points="1.34474497 1.69902721 1.34474497 3.31287164 2.15166719 3.31287164"></polygon>
                                        </g>
                                    </g>
                                    <g id="a" transform="translate(1.613844, 0.000000)">
                                        <g id="use3305" transform="translate(3.995118, 2.978336) rotate(71.999999) translate(-3.995118, -2.978336) translate(2.381273, 0.557570)">
                                            <g id="c">
                                                <polygon id="t" transform="translate(1.748206, 2.505949) rotate(18.000001) translate(-1.748206, -2.505949) " points="1.34474496 1.69902719 1.34474496 3.31287159 2.15166716 3.31287159"></polygon>
                                                <g id="use3302" transform="translate(1.613844, 2.420767) scale(-1, 1) translate(-1.613844, -2.420767) ">
                                                    <polygon id="t" transform="translate(1.748206, 2.505949) rotate(18.000001) translate(-1.748206, -2.505949) " points="1.34474496 1.69902719 1.34474496 3.31287159 2.15166716 3.31287159"></polygon>
                                                </g>
                                            </g>
                                        </g>
                                        <g id="use3307" transform="translate(3.701986, 3.880503) rotate(143.999998) translate(-3.701986, -3.880503) translate(2.088141, 1.459736)">
                                            <g id="c">
                                                <polygon id="t" transform="translate(1.748206, 2.505950) rotate(18.000001) translate(-1.748206, -2.505950) " points="1.34474502 1.69902726 1.34474502 3.31287175 2.15166726 3.31287175"></polygon>
                                                <g id="use3302" transform="translate(1.613845, 2.420767) scale(-1, 1) translate(-1.613845, -2.420767) ">
                                                    <polygon id="t" transform="translate(1.748206, 2.505950) rotate(18.000001) translate(-1.748206, -2.505950) " points="1.34474502 1.69902726 1.34474502 3.31287175 2.15166726 3.31287175"></polygon>
                                                </g>
                                            </g>
                                        </g>
                                    </g>
                                    <g id="use3309" transform="translate(4.034611, 4.034611) scale(-1, 1) translate(-4.034611, -4.034611) ">
                                        <g id="a">
                                            <g id="use3305" transform="translate(3.995118, 2.978336) rotate(71.999999) translate(-3.995118, -2.978336) translate(2.381273, 0.557570)">
                                                <g id="c">
                                                    <polygon id="t" transform="translate(1.748206, 2.505949) rotate(18.000001) translate(-1.748206, -2.505949) " points="1.34474496 1.69902719 1.34474496 3.31287159 2.15166716 3.31287159"></polygon>
                                                    <g id="use3302" transform="translate(1.613844, 2.420767) scale(-1, 1) translate(-1.613844, -2.420767) ">
                                                        <polygon id="t" transform="translate(1.748206, 2.505949) rotate(18.000001) translate(-1.748206, -2.505949) " points="1.34474496 1.69902719 1.34474496 3.31287159 2.15166716 3.31287159"></polygon>
                                                    </g>
                                                </g>
                                            </g>
                                            <g id="use3307" transform="translate(3.701986, 3.880503) rotate(143.999998) translate(-3.701986, -3.880503) translate(2.088141, 1.459736)">
                                                <g id="c">
                                                    <polygon id="t" transform="translate(1.748206, 2.505950) rotate(18.000001) translate(-1.748206, -2.505950) " points="1.34474502 1.69902726 1.34474502 3.31287175 2.15166726 3.31287175"></polygon>
                                                    <g id="use3302" transform="translate(1.613845, 2.420767) scale(-1, 1) translate(-1.613845, -2.420767) ">
                                                        <polygon id="t" transform="translate(1.748206, 2.505950) rotate(18.000001) translate(-1.748206, -2.505950) " points="1.34474502 1.69902726 1.34474502 3.31287175 2.15166726 3.31287175"></polygon>
                                                    </g>
                                                </g>
                                            </g>
                                        </g>
                                    </g>
                                </g>
                            </g>
                            <g id="use3326" transform="translate(6.985234, 21.229330) rotate(71.999999) translate(-6.985234, -21.229330) translate(2.143701, 17.194719)">
                                <g id="s">
                                    <g id="c" transform="translate(3.227689, 0.000000)">
                                        <polygon id="t" transform="translate(1.748206, 2.505949) rotate(18.000001) translate(-1.748206, -2.505949) " points="1.34474491 1.69902713 1.34474491 3.31287149 2.15166709 3.31287149"></polygon>
                                        <g id="use3302" transform="translate(1.613844, 2.420767) scale(-1, 1) translate(-1.613844, -2.420767) ">
                                            <polygon id="t" transform="translate(1.748206, 2.505949) rotate(18.000001) translate(-1.748206, -2.505949) " points="1.34474491 1.69902713 1.34474491 3.31287149 2.15166709 3.31287149"></polygon>
                                        </g>
                                    </g>
                                    <g id="a" transform="translate(1.613844, 0.000000)">
                                        <g id="use3305" transform="translate(3.995117, 2.978336) rotate(71.999999) translate(-3.995117, -2.978336) translate(2.381273, 0.557570)">
                                            <g id="c">
                                                <polygon id="t" transform="translate(1.748206, 2.505949) rotate(18.000001) translate(-1.748206, -2.505949) " points="1.34474489 1.69902711 1.34474489 3.31287144 2.15166706 3.31287144"></polygon>
                                                <g id="use3302" transform="translate(1.613844, 2.420767) scale(-1, 1) translate(-1.613844, -2.420767) ">
                                                    <polygon id="t" transform="translate(1.748206, 2.505949) rotate(18.000001) translate(-1.748206, -2.505949) " points="1.34474489 1.69902711 1.34474489 3.31287144 2.15166706 3.31287144"></polygon>
                                                </g>
                                            </g>
                                        </g>
                                        <g id="use3307" transform="translate(3.701986, 3.880503) rotate(143.999998) translate(-3.701986, -3.880503) translate(2.088141, 1.459736)">
                                            <g id="c">
                                                <polygon id="t" transform="translate(1.748206, 2.505949) rotate(18.000001) translate(-1.748206, -2.505949) " points="1.34474496 1.69902719 1.34474496 3.31287159 2.15166716 3.31287159"></polygon>
                                                <g id="use3302" transform="translate(1.613844, 2.420767) scale(-1, 1) translate(-1.613844, -2.420767) ">
                                                    <polygon id="t" transform="translate(1.748206, 2.505949) rotate(18.000001) translate(-1.748206, -2.505949) " points="1.34474496 1.69902719 1.34474496 3.31287159 2.15166716 3.31287159"></polygon>
                                                </g>
                                            </g>
                                        </g>
                                    </g>
                                    <g id="use3309" transform="translate(4.034611, 4.034611) scale(-1, 1) translate(-4.034611, -4.034611) ">
                                        <g id="a">
                                            <g id="use3305" transform="translate(3.995117, 2.978336) rotate(71.999999) translate(-3.995117, -2.978336) translate(2.381273, 0.557570)">
                                                <g id="c">
                                                    <polygon id="t" transform="translate(1.748206, 2.505949) rotate(18.000001) translate(-1.748206, -2.505949) " points="1.34474489 1.69902711 1.34474489 3.31287144 2.15166706 3.31287144"></polygon>
                                                    <g id="use3302" transform="translate(1.613844, 2.420767) scale(-1, 1) translate(-1.613844, -2.420767) ">
                                                        <polygon id="t" transform="translate(1.748206, 2.505949) rotate(18.000001) translate(-1.748206, -2.505949) " points="1.34474489 1.69902711 1.34474489 3.31287144 2.15166706 3.31287144"></polygon>
                                                    </g>
                                                </g>
                                            </g>
                                            <g id="use3307" transform="translate(3.701986, 3.880503) rotate(143.999998) translate(-3.701986, -3.880503) translate(2.088141, 1.459736)">
                                                <g id="c">
                                                    <polygon id="t" transform="translate(1.748206, 2.505949) rotate(18.000001) translate(-1.748206, -2.505949) " points="1.34474496 1.69902719 1.34474496 3.31287159 2.15166716 3.31287159"></polygon>
                                                    <g id="use3302" transform="translate(1.613844, 2.420767) scale(-1, 1) translate(-1.613844, -2.420767) ">
                                                        <polygon id="t" transform="translate(1.748206, 2.505949) rotate(18.000001) translate(-1.748206, -2.505949) " points="1.34474496 1.69902719 1.34474496 3.31287159 2.15166716 3.31287159"></polygon>
                                                    </g>
                                                </g>
                                            </g>
                                        </g>
                                    </g>
                                </g>
                            </g>
                            <g id="use3328" transform="translate(10.529482, 24.773578) rotate(71.999999) translate(-10.529482, -24.773578) translate(5.687949, 20.738967)">
                                <g id="s">
                                    <g id="c" transform="translate(3.227689, 0.000000)">
                                        <polygon id="t" transform="translate(1.748206, 2.505949) rotate(18.000001) translate(-1.748206, -2.505949) " points="1.34474491 1.69902713 1.34474491 3.31287149 2.15166709 3.31287149"></polygon>
                                        <g id="use3302" transform="translate(1.613844, 2.420767) scale(-1, 1) translate(-1.613844, -2.420767) ">
                                            <polygon id="t" transform="translate(1.748206, 2.505949) rotate(18.000001) translate(-1.748206, -2.505949) " points="1.34474491 1.69902713 1.34474491 3.31287149 2.15166709 3.31287149"></polygon>
                                        </g>
                                    </g>
                                    <g id="a" transform="translate(1.613844, 0.000000)">
                                        <g id="use3305" transform="translate(3.995117, 2.978336) rotate(71.999999) translate(-3.995117, -2.978336) translate(2.381273, 0.557570)">
                                            <g id="c">
                                                <polygon id="t" transform="translate(1.748206, 2.505949) rotate(18.000001) translate(-1.748206, -2.505949) " points="1.34474489 1.69902711 1.34474489 3.31287144 2.15166706 3.31287144"></polygon>
                                                <g id="use3302" transform="translate(1.613844, 2.420767) scale(-1, 1) translate(-1.613844, -2.420767) ">
                                                    <polygon id="t" transform="translate(1.748206, 2.505949) rotate(18.000001) translate(-1.748206, -2.505949) " points="1.34474489 1.69902711 1.34474489 3.31287144 2.15166706 3.31287144"></polygon>
                                                </g>
                                            </g>
                                        </g>
                                        <g id="use3307" transform="translate(3.701986, 3.880503) rotate(143.999998) translate(-3.701986, -3.880503) translate(2.088141, 1.459736)">
                                            <g id="c">
                                                <polygon id="t" transform="translate(1.748206, 2.505949) rotate(18.000001) translate(-1.748206, -2.505949) " points="1.34474496 1.69902719 1.34474496 3.31287159 2.15166716 3.31287159"></polygon>
                                                <g id="use3302" transform="translate(1.613844, 2.420767) scale(-1, 1) translate(-1.613844, -2.420767) ">
                                                    <polygon id="t" transform="translate(1.748206, 2.505949) rotate(18.000001) translate(-1.748206, -2.505949) " points="1.34474496 1.69902719 1.34474496 3.31287159 2.15166716 3.31287159"></polygon>
                                                </g>
                                            </g>
                                        </g>
                                    </g>
                                    <g id="use3309" transform="translate(4.034611, 4.034611) scale(-1, 1) translate(-4.034611, -4.034611) ">
                                        <g id="a">
                                            <g id="use3305" transform="translate(3.995117, 2.978336) rotate(71.999999) translate(-3.995117, -2.978336) translate(2.381273, 0.557570)">
                                                <g id="c">
                                                    <polygon id="t" transform="translate(1.748206, 2.505949) rotate(18.000001) translate(-1.748206, -2.505949) " points="1.34474489 1.69902711 1.34474489 3.31287144 2.15166706 3.31287144"></polygon>
                                                    <g id="use3302" transform="translate(1.613844, 2.420767) scale(-1, 1) translate(-1.613844, -2.420767) ">
                                                        <polygon id="t" transform="translate(1.748206, 2.505949) rotate(18.000001) translate(-1.748206, -2.505949) " points="1.34474489 1.69902711 1.34474489 3.31287144 2.15166706 3.31287144"></polygon>
                                                    </g>
                                                </g>
                                            </g>
                                            <g id="use3307" transform="translate(3.701986, 3.880503) rotate(143.999998) translate(-3.701986, -3.880503) translate(2.088141, 1.459736)">
                                                <g id="c">
                                                    <polygon id="t" transform="translate(1.748206, 2.505949) rotate(18.000001) translate(-1.748206, -2.505949) " points="1.34474496 1.69902719 1.34474496 3.31287159 2.15166716 3.31287159"></polygon>
                                                    <g id="use3302" transform="translate(1.613844, 2.420767) scale(-1, 1) translate(-1.613844, -2.420767) ">
                                                        <polygon id="t" transform="translate(1.748206, 2.505949) rotate(18.000001) translate(-1.748206, -2.505949) " points="1.34474496 1.69902719 1.34474496 3.31287159 2.15166716 3.31287159"></polygon>
                                                    </g>
                                                </g>
                                            </g>
                                        </g>
                                    </g>
                                </g>
                            </g>
                        </g>
                    </g>
                </g>
                <path d="M7.54776192,50.5681233 L7.54776192,38.0709355 L9.77692346,38.0709355 L14.4210102,46.4166019 L14.4210102,38.0709355 L16.5495502,38.0709355 L16.5495502,50.5681233 L14.2507269,50.5681233 L9.67630094,42.4185248 L9.67630094,50.5681233 L7.54776192,50.5681233 Z M19.0418765,50.5681233 L19.0418765,38.1732313 L21.3329595,38.1732313 L21.3329595,48.4625265 L27.029707,48.4625265 L27.029707,50.5681233 L19.0418765,50.5681233 Z" id="text3367" fill="#FFFFFF"></path>
            </g>
        </g>
    </g>
</svg>