<svg xmlns="http://www.w3.org/2000/svg" width="698.989" height="236.7" viewBox="0 0 698.989 236.7"><g transform="translate(4245.714 2652.26)"><g transform="translate(-4245.714 -2652.26)"><path d="M-3968.885-2581.956q-9.416-9.814-35.807-9.814t-42.8,12.212a54.073,54.073,0,0,0-20.971,32.751l-5.99,26.709c-.3,1.383-.534,2.716-.739,4.025a24.246,24.246,0,0,1-10.5,6.832,30.825,30.825,0,0,1-7.955,1.01q-8.561,0-8.563-6.162a12.421,12.421,0,0,1,.287-2.511l7.7-34.008a65.9,65.9,0,0,0,1.711-15.523,22.654,22.654,0,0,0-5.99-15.292q-8.562-10.27-37.377-10.27-23.687,0-39.373,13.465l16.263-73.727h-48.5l-38.231,173.245h48.5l15.977-72.126q7.986-7.757,22.4-7.762t14.409,10.956a40.181,40.181,0,0,1-.857,8.218l-6.276,28.075a46.2,46.2,0,0,0-1.141,9.814q0,26.021,38.8,26.021a55.108,55.108,0,0,0,23.809-5.119l0,.009s8.666-4.264,18.774-10.274a26.432,26.432,0,0,0,3.144,3.971q11.13,11.418,37.661,11.413,20.545,0,35.095-10.27l-15.694,70.53h48.5l38.232-173.243h-43.083Zm-20.259,66.878a26.01,26.01,0,0,1-17.546,6.388q-10.131,0-14.409-3.535t-4.279-7.19a22.251,22.251,0,0,1,.571-5.708l3.708-17.117q3.707-16.891,25.68-16.892,11.695,0,14.836,5.708Z" transform="translate(4245.714 2652.26)" fill="#fff"/><path d="M-3814.887-2619.107q-33.668,0-54.069,11.757t-25.247,33.663l-5.992,28.3c-.074.333-.125.654-.191.983-3.433,3.971-7.491,7.116-12.181,8.38a36.729,36.729,0,0,1-8.386.909q-7.564,0-7.561-5.934a13.237,13.237,0,0,1,.285-2.74l15.979-71.9h-48.5l-16.263,72.811q-7.7,7.081-20.543,7.074-15.409,0-15.408-10.953a40.166,40.166,0,0,1,.856-8.219l13.409-60.712h-48.5l-15.978,71.9a65.946,65.946,0,0,0-1.713,15.521,22.425,22.425,0,0,0,5.706,15.064q8.561,10.5,37.519,10.5t46.08-19.858q2.849,19.857,35.092,19.858a55.572,55.572,0,0,0,27.943-7.177c3.806-1.99,9.876-5.265,16.376-9.195q12.325,16.365,54.189,16.372,65.053,0,74.467-42.685l-47.362-.455q-.858,4.569-5.708,7.99a19.772,19.772,0,0,1-11.7,3.421q-18.552,0-18.546-12.551a24.556,24.556,0,0,1,.569-5.024l1.143-5.249h87.021l3.423-16.206a58.5,58.5,0,0,0,1.142-10.956Q-3757.54-2619.1-3814.887-2619.107Zm7.135,47.933h-38.518q2.568-8.672,9.273-13.01a26.752,26.752,0,0,1,14.836-4.337q8.129,0,11.84,3.424t3.708,6.734A25.777,25.777,0,0,1-3807.753-2571.173Z" transform="translate(4392.311 2679.138)" fill="#fff"/></g><g transform="translate(-3598.066 -2633.792)"><path d="M-3888.044-2616.2c0-14.959,10.647-25.861,25.732-25.861,14.958,0,25.608,10.9,25.608,25.861s-10.649,25.988-25.608,25.988C-3877.4-2590.212-3888.044-2601.242-3888.044-2616.2Zm5.451,0c0,12.3,7.858,20.916,20.282,20.916,12.3,0,20.409-8.619,20.409-20.916s-8.112-20.916-20.409-20.916C-3874.735-2637.116-3882.594-2628.5-3882.594-2616.2Zm25.732,2.789,7.1,10.522-7.986.128-6.085-10.14h-2.155v10.14h-6.591v-27.255h12.168c5.7,0,9.508,3.3,9.508,8.494A8.08,8.08,0,0,1-3856.862-2613.411Zm-9.126-10.649v5.706h5.2c1.774,0,3.3-.887,3.3-2.916s-1.521-2.79-3.3-2.79Z" transform="translate(3888.044 2642.061)" fill="#fff"/></g></g></svg>
