<svg xmlns="http://www.w3.org/2000/svg" xmlns:xlink="http://www.w3.org/1999/xlink" width="23.182" height="34" viewBox="0 0 23.182 34"><defs><clipPath id="a"><path d="M7.026,24.375c-.682-1.18-1.4-2.292-2.078-3.285a11.591,11.591,0,1,1,13.305-.013c-.709,1.031-1.455,2.187-2.16,3.407A78.522,78.522,0,0,0,11.591,34,81.634,81.634,0,0,0,7.026,24.375Z" transform="translate(0)" fill="#f9be02"/></clipPath></defs><g transform="translate(-1054.43 -322)"><g transform="translate(3.43 4)"><g transform="translate(1051 318)" clip-path="url(#a)"><path d="M7.026,24.375c-.682-1.18-1.4-2.292-2.078-3.285a11.591,11.591,0,1,1,13.305-.013c-.709,1.031-1.455,2.187-2.16,3.407A78.522,78.522,0,0,0,11.591,34,81.634,81.634,0,0,0,7.026,24.375Z" transform="translate(0)" fill="#eabd2d"/><path d="M0,0H23.568L0,19.7Z" transform="translate(-0.387)" fill="#0d1a98"/></g><path d="M7.948.206H4.035V-11.077H.5v-3.2H11.475v3.2H7.948Z" transform="translate(1056.569 337.346)" fill="#c3091b"/></g></g></svg>