<?xml version="1.0" encoding="UTF-8"?>
<svg width="69px" height="29px" viewBox="0 0 69 29" version="1.1" xmlns="http://www.w3.org/2000/svg" xmlns:xlink="http://www.w3.org/1999/xlink">
    <!-- Generator: Sketch 53.2 (72643) - https://sketchapp.com -->
    <title>caravan</title>
    <desc>Created with Sketch.</desc>
    <g id="Material-UI-Design-DESKTOP" stroke="none" stroke-width="1" fill="none" fill-rule="evenodd">
        <g id="Kabelset" transform="translate(-528.000000, -778.000000)" fill="#000000" fill-rule="nonzero">
            <g id="caravan" transform="translate(528.000000, 778.000000)">
                <path d="M13.5,18 C12.124978,18 11,19.3499736 11,21 C11,22.6500264 12.124978,24 13.5,24 C14.875022,24 16,22.6500264 16,21 C16,19.3499736 14.875022,18 13.5,18 Z" id="Path"></path>
                <path d="M43.5,18 C42.124978,18 41,19.3499736 41,21 C41,22.6500264 42.124978,24 43.5,24 C44.875022,24 46,22.6500264 46,21 C46,19.3499736 44.8748755,18 43.5,18 Z" id="Path"></path>
                <path d="M67.8499124,4.83328613 L64.3999191,4.83328613 L64.3999191,1.20828613 C64.3999191,0.483286133 63.939965,3.21964677e-15 63.2499663,3.21964677e-15 C62.5599677,3.21964677e-15 62.1000135,0.483286133 62.1000135,1.20828613 L62.1000135,4.83328613 L57.5000674,4.83328613 L0,4.83328613 L0,7.25 L0,17.5207861 C0,19.8165723 1.83995148,21.75 4.02503706,21.75 L5.8312972,21.75 C6.38046605,25.8783936 9.70620565,29 13.8001078,29 C17.89401,29 21.2197496,25.8783936 21.7689184,21.75 L35.7312837,21.75 C36.2804526,25.8783936 39.6061922,29 43.7000943,29 C47.7939965,29 51.1197361,25.8783936 51.6689049,21.75 L57.5000674,21.75 L57.5000674,7.25 L67.8500472,7.25 C68.5400458,7.25 69,6.76671387 69,6.04171387 C68.9998652,5.31671387 68.5399111,4.83328613 67.8499124,4.83328613 Z M13.799973,26.5832861 C10.5800243,26.5832861 8.04993936,23.925 8.04993936,20.5415723 C8.04993936,17.1582861 10.5798895,14.4998584 13.799973,14.4998584 C17.0199218,14.4998584 19.5500067,17.1581445 19.5500067,20.5415723 C19.5500067,23.925 17.0199218,26.5832861 13.799973,26.5832861 Z M43.6999596,26.5832861 C40.4800108,26.5832861 37.9499259,23.925 37.9499259,20.5415723 C37.9499259,17.1582861 40.479876,14.4998584 43.6999596,14.4998584 C46.9199084,14.4998584 49.4499933,17.1581445 49.4499933,20.5415723 C49.4498585,23.925 46.9199084,26.5832861 43.6999596,26.5832861 Z M55.1998922,19.3332861 L51.6686354,19.3332861 C51.1194666,15.2048926 47.793727,12.0832861 43.6998248,12.0832861 C43.6812272,12.0832861 43.6628991,12.0845605 43.6443015,12.0847021 C43.6243562,12.0845605 43.6046805,12.0832861 43.58487,12.0832861 C39.5598329,12.0832861 36.2249292,15.225 35.6498854,19.3332861 L21.7687837,19.3332861 C21.2538452,15.462041 18.2970932,12.4775049 14.5550634,12.1206689 C14.527706,12.1179785 14.4999443,12.1165625 14.4724522,12.1141553 C14.3782512,12.1062256 14.284185,12.0980127 14.1890406,12.0933398 C14.0600702,12.0868262 13.9304259,12.0831445 13.799973,12.0831445 C13.6695202,12.0831445 13.5398759,12.0868262 13.4109054,12.0933398 C13.3157611,12.0980127 13.2216949,12.106084 13.1274939,12.1141553 C13.1000018,12.1165625 13.0722401,12.1179785 13.0448827,12.1206689 C9.30285292,12.4775049 6.34610089,15.462041 5.83116244,19.3332861 L4.02503706,19.3332861 C3.10499394,19.3332861 2.30004043,18.4875 2.30004043,17.5207861 L2.30004043,7.25 L55.1998922,7.25 L55.1998922,19.3332861 Z" id="Shape"></path>
            </g>
        </g>
    </g>
</svg>