<svg xmlns="http://www.w3.org/2000/svg" width="30" height="24" viewBox="0 0 30 24"><path d="M6.187,17.25H4.312a.563.563,0,0,0-.562.563v1.875a.563.563,0,0,0,.562.563H6.187a.563.563,0,0,0,.563-.562V17.813A.563.563,0,0,0,6.187,17.25Zm0-4.5H4.312a.563.563,0,0,0-.562.563v1.875a.563.563,0,0,0,.562.563H6.187a.563.563,0,0,0,.563-.562V13.313A.563.563,0,0,0,6.187,12.75Zm0-4.5H4.312a.563.563,0,0,0-.562.563v1.875a.563.563,0,0,0,.562.562H6.187a.563.563,0,0,0,.563-.562V8.813A.563.563,0,0,0,6.187,8.25Zm4.5,9H8.813a.563.563,0,0,0-.562.563v1.875a.563.563,0,0,0,.563.563h1.875a.563.563,0,0,0,.562-.562V17.813A.563.563,0,0,0,10.688,17.25Zm0-4.5H8.813a.563.563,0,0,0-.562.563v1.875a.563.563,0,0,0,.563.563h1.875a.563.563,0,0,0,.562-.562V13.313A.563.563,0,0,0,10.688,12.75Zm0-4.5H8.813a.563.563,0,0,0-.562.563v1.875a.563.563,0,0,0,.563.562h1.875a.563.563,0,0,0,.562-.562V8.813A.563.563,0,0,0,10.688,8.25Zm9,4.5H17.812a.563.563,0,0,0-.562.563v1.875a.563.563,0,0,0,.563.563h1.875a.563.563,0,0,0,.563-.562V13.313A.563.563,0,0,0,19.687,12.75Zm0-4.5H17.812a.563.563,0,0,0-.562.563v1.875a.563.563,0,0,0,.563.562h1.875a.563.563,0,0,0,.563-.562V8.813A.563.563,0,0,0,19.687,8.25Zm0-4.5H17.812a.563.563,0,0,0-.562.562V6.188a.563.563,0,0,0,.563.563h1.875a.563.563,0,0,0,.563-.563V4.313A.563.563,0,0,0,19.687,3.75Zm6,13.5H23.812a.563.563,0,0,0-.562.563v1.875a.563.563,0,0,0,.562.563h1.875a.563.563,0,0,0,.563-.562V17.813A.563.563,0,0,0,25.687,17.25Zm0-4.5H23.812a.563.563,0,0,0-.562.563v1.875a.563.563,0,0,0,.562.563h1.875a.563.563,0,0,0,.563-.562V13.313A.563.563,0,0,0,25.687,12.75ZM28.875,9H24V1.125A1.125,1.125,0,0,0,22.875,0h-8.25A1.125,1.125,0,0,0,13.5,1.125V4.5h-3V.375A.375.375,0,0,0,10.125,0h-.75A.375.375,0,0,0,9,.375V4.5H6V.375A.375.375,0,0,0,5.625,0h-.75A.375.375,0,0,0,4.5.375V4.5H1.125A1.125,1.125,0,0,0,0,5.625v18A.375.375,0,0,0,.375,24h.75a.375.375,0,0,0,.375-.375V6H15V1.5h7.5v9h6V23.625a.375.375,0,0,0,.375.375h.75A.375.375,0,0,0,30,23.625v-13.5A1.125,1.125,0,0,0,28.875,9Z"/></svg>