<svg xmlns="http://www.w3.org/2000/svg" width="18" height="24.005" viewBox="0 0 18 24.005"><path d="M17.339,4.494,13.406.561A2.25,2.25,0,0,0,11.817-.1H2.25A2.258,2.258,0,0,0,0,2.155v19.5A2.251,2.251,0,0,0,2.25,23.9h13.5A2.251,2.251,0,0,0,18,21.655V6.088a2.261,2.261,0,0,0-.661-1.594ZM16.28,5.558a.737.737,0,0,1,.2.347H12V1.428a.737.737,0,0,1,.347.2ZM15.75,22.4H2.25a.752.752,0,0,1-.75-.75V2.155a.752.752,0,0,1,.75-.75H10.5V6.28A1.122,1.122,0,0,0,11.625,7.4H16.5v14.25A.752.752,0,0,1,15.75,22.4ZM13.5,10.967v.375a.564.564,0,0,1-.562.563H5.063a.564.564,0,0,1-.562-.562v-.375a.564.564,0,0,1,.563-.562h7.875A.564.564,0,0,1,13.5,10.967Zm0,3v.375a.564.564,0,0,1-.562.563H5.063a.564.564,0,0,1-.562-.562v-.375a.564.564,0,0,1,.563-.562h7.875A.564.564,0,0,1,13.5,13.967Zm0,3v.375a.564.564,0,0,1-.562.563H5.063a.564.564,0,0,1-.562-.562v-.375a.564.564,0,0,1,.563-.562h7.875A.564.564,0,0,1,13.5,16.967Z" transform="translate(0 0.1)"/></svg>