<svg xmlns="http://www.w3.org/2000/svg" width="22" height="24" viewBox="0 0 22 24"><path d="M9.429,5.016V6.891a.576.576,0,0,1-.589.563H6.875a.576.576,0,0,1-.589-.562V5.016a.576.576,0,0,1,.589-.562H8.839A.576.576,0,0,1,9.429,5.016Zm5.7-.562H13.161a.576.576,0,0,0-.589.563V6.891a.576.576,0,0,0,.589.563h1.964a.576.576,0,0,0,.589-.562V5.016A.576.576,0,0,0,15.125,4.453Zm-6.286,4.5H6.875a.576.576,0,0,0-.589.562v1.875a.576.576,0,0,0,.589.563H8.839a.576.576,0,0,0,.589-.562V9.516A.576.576,0,0,0,8.839,8.953Zm6.286,0H13.161a.576.576,0,0,0-.589.562v1.875a.576.576,0,0,0,.589.563h1.964a.576.576,0,0,0,.589-.562V9.516A.576.576,0,0,0,15.125,8.953Zm-6.286,4.5H6.875a.576.576,0,0,0-.589.563v1.875a.576.576,0,0,0,.589.563H8.839a.576.576,0,0,0,.589-.563V14.016A.576.576,0,0,0,8.839,13.453Zm6.286,0H13.161a.576.576,0,0,0-.589.563v1.875a.576.576,0,0,0,.589.563h1.964a.576.576,0,0,0,.589-.563V14.016A.576.576,0,0,0,15.125,13.453ZM22,23.063V24H0v-.937A.576.576,0,0,1,.589,22.5h.982V1.125A1.153,1.153,0,0,1,2.75,0h16.5a1.153,1.153,0,0,1,1.179,1.125V22.5h.982A.576.576,0,0,1,22,23.063ZM18.857,22.5V1.5H3.143v21H9.429V18.516a.576.576,0,0,1,.589-.563h1.964a.576.576,0,0,1,.589.563V22.5Z"/></svg>